<svg width="26" height="27" viewBox="0 0 26 27" fill="none" xmlns="http://www.w3.org/2000/svg">
<path d="M13.8125 2.53125C13.8125 2.30747 13.7269 2.09286 13.5745 1.93463C13.4222 1.77639 13.2155 1.6875 13 1.6875C12.7845 1.6875 12.5778 1.77639 12.4255 1.93463C12.2731 2.09286 12.1875 2.30747 12.1875 2.53125V4.21875C12.1875 4.44253 12.2731 4.65714 12.4255 4.81537C12.5778 4.9736 12.7845 5.0625 13 5.0625C13.2155 5.0625 13.4222 4.9736 13.5745 4.81537C13.7269 4.65714 13.8125 4.44253 13.8125 4.21875V2.53125ZM6.10512 5.14687C5.95189 4.99318 5.74665 4.90813 5.53361 4.91006C5.32058 4.91198 5.11679 5.00071 4.96615 5.15715C4.8155 5.31359 4.73005 5.52521 4.7282 5.74644C4.72635 5.96767 4.80825 6.1808 4.95625 6.33994L6.10512 7.533C6.25836 7.6867 6.4636 7.77174 6.67664 7.76982C6.88967 7.7679 7.09346 7.67916 7.2441 7.52272C7.39475 7.36628 7.4802 7.15466 7.48205 6.93343C7.4839 6.7122 7.402 6.49907 7.254 6.33994L6.10512 5.14687ZM21.0437 6.33994C21.1214 6.2621 21.1833 6.169 21.2258 6.06606C21.2684 5.96312 21.2908 5.8524 21.2918 5.74037C21.2927 5.62834 21.2721 5.51723 21.2313 5.41354C21.1904 5.30985 21.1301 5.21564 21.0538 5.13642C20.9775 5.05719 20.8868 4.99454 20.787 4.95212C20.6871 4.90969 20.5801 4.88835 20.4722 4.88932C20.3644 4.89029 20.2577 4.91357 20.1586 4.95779C20.0595 5.00201 19.9698 5.06629 19.8949 5.14687L18.746 6.33994C18.598 6.49907 18.5161 6.7122 18.518 6.93343C18.5198 7.15466 18.6053 7.36628 18.7559 7.52272C18.9065 7.67916 19.1103 7.7679 19.3234 7.76982C19.5364 7.77174 19.7416 7.6867 19.8949 7.533L21.0437 6.33994ZM2.4375 12.6562C2.22201 12.6562 2.01535 12.7451 1.86298 12.9034C1.7106 13.0616 1.625 13.2762 1.625 13.5C1.625 13.7238 1.7106 13.9384 1.86298 14.0966C2.01535 14.2549 2.22201 14.3438 2.4375 14.3438H4.0625C4.27799 14.3438 4.48465 14.2549 4.63702 14.0966C4.7894 13.9384 4.875 13.7238 4.875 13.5C4.875 13.2762 4.7894 13.0616 4.63702 12.9034C4.48465 12.7451 4.27799 12.6562 4.0625 12.6562H2.4375ZM21.9375 12.6562C21.722 12.6562 21.5153 12.7451 21.363 12.9034C21.2106 13.0616 21.125 13.2762 21.125 13.5C21.125 13.7238 21.2106 13.9384 21.363 14.0966C21.5153 14.2549 21.722 14.3438 21.9375 14.3438H23.5625C23.778 14.3438 23.9847 14.2549 24.137 14.0966C24.2894 13.9384 24.375 13.7238 24.375 13.5C24.375 13.2762 24.2894 13.0616 24.137 12.9034C23.9847 12.7451 23.778 12.6562 23.5625 12.6562H21.9375ZM7.254 20.6601C7.3316 20.5822 7.3935 20.4891 7.43608 20.3862C7.47866 20.2832 7.50108 20.1725 7.50202 20.0605C7.50295 19.9485 7.4824 19.8374 7.44154 19.7337C7.40069 19.63 7.34036 19.5358 7.26407 19.4565C7.18778 19.3773 7.09707 19.3147 6.99721 19.2722C6.89736 19.2298 6.79037 19.2085 6.68249 19.2094C6.5746 19.2104 6.46799 19.2337 6.36886 19.2779C6.26973 19.3221 6.18008 19.3864 6.10512 19.467L4.95625 20.6601C4.87865 20.7379 4.81675 20.831 4.77417 20.9339C4.73159 21.0369 4.70917 21.1476 4.70823 21.2596C4.7073 21.3717 4.72785 21.4828 4.76871 21.5865C4.80956 21.6902 4.86989 21.7844 4.94618 21.8636C5.02247 21.9428 5.11318 22.0055 5.21304 22.0479C5.31289 22.0903 5.41988 22.1117 5.52776 22.1107C5.63565 22.1097 5.74226 22.0864 5.84139 22.0422C5.94052 21.998 6.03017 21.9337 6.10512 21.8531L7.254 20.6601ZM19.8949 19.467C19.7416 19.3133 19.5364 19.2283 19.3234 19.2302C19.1103 19.2321 18.9065 19.3208 18.7559 19.4773C18.6053 19.6337 18.5198 19.8453 18.518 20.0666C18.5161 20.2878 18.598 20.5009 18.746 20.6601L19.8949 21.8531C19.9698 21.9337 20.0595 21.998 20.1586 22.0422C20.2577 22.0864 20.3644 22.1097 20.4722 22.1107C20.5801 22.1117 20.6871 22.0903 20.787 22.0479C20.8868 22.0055 20.9775 21.9428 21.0538 21.8636C21.1301 21.7844 21.1904 21.6902 21.2313 21.5865C21.2721 21.4828 21.2927 21.3717 21.2918 21.2596C21.2908 21.1476 21.2684 21.0369 21.2258 20.9339C21.1833 20.831 21.1214 20.7379 21.0437 20.6601L19.8949 19.467ZM13.8125 22.7812C13.8125 22.5575 13.7269 22.3429 13.5745 22.1846C13.4222 22.0264 13.2155 21.9375 13 21.9375C12.7845 21.9375 12.5778 22.0264 12.4255 22.1846C12.2731 22.3429 12.1875 22.5575 12.1875 22.7812V24.4688C12.1875 24.6925 12.2731 24.9071 12.4255 25.0654C12.5778 25.2236 12.7845 25.3125 13 25.3125C13.2155 25.3125 13.4222 25.2236 13.5745 25.0654C13.7269 24.9071 13.8125 24.6925 13.8125 24.4688V22.7812ZM13 6.75C11.2761 6.75 9.62279 7.46116 8.40381 8.72703C7.18482 9.9929 6.5 11.7098 6.5 13.5C6.5 15.2902 7.18482 17.0071 8.40381 18.273C9.62279 19.5388 11.2761 20.25 13 20.25C14.7239 20.25 16.3772 19.5388 17.5962 18.273C18.8152 17.0071 19.5 15.2902 19.5 13.5C19.5 11.7098 18.8152 9.9929 17.5962 8.72703C16.3772 7.46116 14.7239 6.75 13 6.75ZM8.125 13.5C8.125 12.1573 8.63861 10.8697 9.55285 9.92027C10.4671 8.97087 11.7071 8.4375 13 8.4375C14.2929 8.4375 15.5329 8.97087 16.4471 9.92027C17.3614 10.8697 17.875 12.1573 17.875 13.5C17.875 14.8427 17.3614 16.1303 16.4471 17.0797C15.5329 18.0291 14.2929 18.5625 13 18.5625C11.7071 18.5625 10.4671 18.0291 9.55285 17.0797C8.63861 16.1303 8.125 14.8427 8.125 13.5Z" fill="white"/>
</svg>
