<svg width="31" height="29" viewBox="0 0 31 29" fill="none" xmlns="http://www.w3.org/2000/svg">
<path d="M17.375 8.7C21.0725 8.7 23.1695 10.9808 23.474 13.7373H23.567C25.946 13.7373 27.875 15.5309 27.875 17.7436C27.875 19.9563 25.946 21.75 23.567 21.75H22.526L22.5005 21.8094L20.273 25.7302C20.1836 25.8895 20.0357 26.0106 19.8585 26.0698C19.6813 26.1289 19.4877 26.1217 19.3157 26.0497C19.1436 25.9776 19.0058 25.846 18.9292 25.6806C18.8527 25.5151 18.843 25.328 18.902 25.156L18.956 25.0371L20.825 21.75H18.044L18.017 21.8094L15.7895 25.7302C15.7001 25.8895 15.5522 26.0106 15.375 26.0698C15.1978 26.1289 15.0042 26.1217 14.8322 26.0497C14.6601 25.9776 14.5223 25.846 14.4457 25.6806C14.3692 25.5151 14.3595 25.328 14.4185 25.156L14.4725 25.0371L16.343 21.75H13.535L11.291 25.7302C11.2016 25.8895 11.0537 26.0106 10.8765 26.0698C10.6993 26.1289 10.5057 26.1217 10.3337 26.0497C10.1616 25.9776 10.0238 25.846 9.94722 25.6806C9.87066 25.5151 9.86095 25.328 9.92 25.156L9.974 25.0371L11.828 21.75H11.183C8.804 21.75 6.875 19.9563 6.875 17.7436C6.875 15.5309 8.804 13.7373 11.183 13.7373H11.276C11.5835 10.962 13.6775 8.7 17.375 8.7ZM17.375 10.15C14.9 10.15 12.7445 11.9915 12.7445 14.5362C12.7445 14.9393 12.3635 15.2554 11.927 15.2554H11.102C9.596 15.254 8.375 16.385 8.375 17.777C8.375 19.169 9.596 20.3 11.102 20.3H23.648C25.154 20.3 26.375 19.169 26.375 17.777C26.375 16.385 25.154 15.254 23.648 15.254H22.823C22.388 15.2554 22.0055 14.9393 22.0055 14.5362C22.0055 11.9596 19.85 10.15 17.375 10.15ZM6.5795 12.615C6.63729 12.7756 6.63486 12.9507 6.57261 13.1097C6.51037 13.2688 6.39229 13.4016 6.239 13.485L6.1145 13.5372L4.913 13.9374C4.73569 13.9974 4.54155 13.9909 4.36898 13.9191C4.19641 13.8474 4.05797 13.7156 3.98105 13.55C3.90412 13.3843 3.89431 13.1968 3.95356 13.0244C4.01281 12.8521 4.1368 12.7075 4.301 12.6193L4.424 12.5671L5.627 12.1669C5.81498 12.1046 6.02087 12.1169 6.19947 12.2012C6.37806 12.2855 6.51474 12.4348 6.5795 12.6164V12.615ZM14.255 6.525C14.7545 6.7599 15.194 7.06585 15.566 7.424C14.957 7.54435 14.387 7.7285 13.862 7.96775C13.1845 7.57357 12.3867 7.4185 11.6043 7.52892C10.8219 7.63933 10.1032 8.00842 9.57057 8.57337C9.03796 9.13831 8.72431 9.86421 8.683 10.6275C8.64169 11.3908 8.87527 12.1444 9.344 12.76C8.849 12.9021 8.384 13.1094 7.9565 13.369C7.37618 12.4956 7.10736 11.4627 7.19108 10.4279C7.2748 9.39301 7.70646 8.41305 8.42018 7.63751C9.13391 6.86197 10.0905 6.33344 11.144 6.13257C12.1975 5.9317 13.2901 6.06952 14.255 6.525V6.525ZM5.2505 6.7715L5.375 6.8179L6.518 7.35585C6.6865 7.43503 6.81824 7.57231 6.8873 7.74067C6.95636 7.90903 6.95772 8.09628 6.89114 8.26556C6.82455 8.43485 6.69483 8.57391 6.5275 8.65539C6.36017 8.73686 6.16736 8.75484 5.987 8.7058L5.861 8.6594L4.718 8.12145C4.5495 8.04227 4.41776 7.90499 4.34871 7.73663C4.27965 7.56827 4.27828 7.38102 4.34487 7.21174C4.41146 7.04245 4.54118 6.90339 4.70851 6.82191C4.87583 6.74044 5.06865 6.72246 5.249 6.7715H5.2505ZM15.86 3.32775C16.0179 3.40224 16.1438 3.52796 16.2156 3.68299C16.2874 3.83802 16.3007 4.0125 16.253 4.176L16.205 4.2978L15.6485 5.4027C15.5666 5.56558 15.4246 5.69293 15.2504 5.75969C15.0763 5.82644 14.8825 5.82776 14.7074 5.7634C14.5323 5.69903 14.3884 5.57363 14.3042 5.41188C14.2199 5.25013 14.2013 5.06374 14.252 4.8894L14.3 4.76615L14.858 3.66125C14.9453 3.4887 15.0998 3.35667 15.2876 3.29415C15.4755 3.23162 15.6814 3.24371 15.86 3.32775V3.32775ZM10.175 3.28135L10.2305 3.40025L10.6445 4.56315C10.7054 4.73433 10.6978 4.92133 10.6232 5.08737C10.5487 5.25342 10.4126 5.38651 10.2417 5.46048C10.0708 5.53445 9.87747 5.54395 9.69969 5.48711C9.52192 5.43026 9.37257 5.31119 9.281 5.1533L9.227 5.0344L8.813 3.87295C8.7531 3.70217 8.76118 3.51595 8.83568 3.35062C8.91017 3.1853 9.04573 3.05274 9.21588 2.97883C9.38604 2.90492 9.57858 2.89496 9.75593 2.9509C9.93327 3.00684 10.0827 3.12465 10.175 3.28135V3.28135Z" fill="white"/>
</svg>
