<svg width="24" height="23" viewBox="0 0 24 23" fill="none" xmlns="http://www.w3.org/2000/svg">
<path d="M13 20.5174C13.2984 20.5174 13.5845 20.636 13.7955 20.8469C14.0065 21.0579 14.125 21.3441 14.125 21.6424C14.125 21.9408 14.0065 22.2269 13.7955 22.4379C13.5845 22.6489 13.2984 22.7674 13 22.7674C12.7016 22.7674 12.4155 22.6489 12.2045 22.4379C11.9935 22.2269 11.875 21.9408 11.875 21.6424C11.875 21.3441 11.9935 21.0579 12.2045 20.8469C12.4155 20.636 12.7016 20.5174 13 20.5174ZM9.0625 19.3924C9.36087 19.3924 9.64702 19.511 9.85799 19.7219C10.069 19.9329 10.1875 20.2191 10.1875 20.5174C10.1875 20.8158 10.069 21.1019 9.85799 21.3129C9.64702 21.5239 9.36087 21.6424 9.0625 21.6424C8.76413 21.6424 8.47798 21.5239 8.267 21.3129C8.05603 21.1019 7.9375 20.8158 7.9375 20.5174C7.9375 20.2191 8.05603 19.9329 8.267 19.7219C8.47798 19.511 8.76413 19.3924 9.0625 19.3924ZM16.9375 19.3924C17.2359 19.3924 17.522 19.511 17.733 19.7219C17.944 19.9329 18.0625 20.2191 18.0625 20.5174C18.0625 20.8158 17.944 21.1019 17.733 21.3129C17.522 21.5239 17.2359 21.6424 16.9375 21.6424C16.6391 21.6424 16.353 21.5239 16.142 21.3129C15.931 21.1019 15.8125 20.8158 15.8125 20.5174C15.8125 20.2191 15.931 19.9329 16.142 19.7219C16.353 19.511 16.6391 19.3924 16.9375 19.3924ZM12.9994 4.75561C16.564 4.75561 18.5862 7.11474 18.8804 9.96436H18.9704C21.2642 9.96436 23.1239 11.8189 23.1239 14.1072C23.1239 16.3954 21.2642 18.25 18.9704 18.25H7.0285C4.73462 18.25 2.875 16.3954 2.875 14.1072C2.875 11.8189 4.73462 9.96436 7.0285 9.96436H7.1185C7.41437 7.09617 9.43487 4.75561 12.9994 4.75561ZM12.9994 6.15905C10.6026 6.15905 8.5135 8.09855 8.5135 10.7772C8.5135 11.2019 8.1445 11.5349 7.7215 11.5349H6.92275C5.46362 11.5349 4.28069 12.724 4.28069 14.1904C4.28069 15.6574 5.46362 16.8465 6.92275 16.8465H19.0761C20.5352 16.8465 21.7182 15.6574 21.7182 14.1904C21.7182 12.724 20.5352 11.5354 19.0761 11.5354H18.2774C17.8544 11.5354 17.4854 11.2019 17.4854 10.7772C17.4854 8.06424 15.3962 6.15905 12.9994 6.15905ZM3.27381 9.42042C3.33999 9.58038 3.34454 9.75919 3.28657 9.9223C3.2286 10.0854 3.11222 10.2212 2.95994 10.3035L2.89525 10.3345L1.59475 10.8756C1.42931 10.9429 1.24441 10.9444 1.07792 10.8798C0.911421 10.8151 0.775937 10.6893 0.699217 10.528C0.622496 10.3667 0.610347 10.1822 0.665256 10.0123C0.720166 9.84234 0.837979 9.69982 0.994561 9.61392L1.05925 9.58299L2.35975 9.04186C2.53117 8.9709 2.72375 8.97091 2.89516 9.0419C3.06656 9.11289 3.20276 9.24904 3.27381 9.42042ZM10.5863 3.99792L10.5514 4.00861C10.0317 4.17849 9.54794 4.40349 9.10581 4.67799C8.5017 4.42237 7.83198 4.36538 7.19337 4.51525C6.55475 4.66513 5.9803 5.01411 5.55299 5.51179C5.12567 6.00947 4.8676 6.6301 4.81604 7.28404C4.76449 7.93797 4.92213 8.59137 5.26619 9.14986C4.84291 9.30112 4.44096 9.50645 4.07031 9.76074C3.55277 8.87439 3.35874 7.83595 3.5213 6.82253C3.68387 5.8091 4.19296 4.88346 4.96176 4.20346C5.73056 3.52346 6.71145 3.13122 7.73715 3.09363C8.76284 3.05605 9.7698 3.37545 10.5863 3.99736V3.99792ZM1.51375 4.09861L1.58519 4.12449L2.89019 4.6808C3.244 4.83042 3.41387 5.24049 3.26931 5.59655C3.13431 5.92955 2.77262 6.09717 2.43681 5.99649L2.36594 5.97117L1.0615 5.4143C0.891064 5.34159 0.755883 5.20502 0.684913 5.03385C0.613944 4.86268 0.61283 4.67053 0.681811 4.49855C0.816811 4.16611 1.1785 3.99792 1.51431 4.09861H1.51375ZM5.65881 0.625736L5.68975 0.690986L6.22975 1.98811C6.2989 2.15469 6.30139 2.34147 6.23672 2.50984C6.17204 2.6782 6.04513 2.81528 5.88224 2.89271C5.71935 2.97015 5.53292 2.98203 5.36152 2.92589C5.19012 2.86976 5.04684 2.7499 4.96131 2.59111L4.93037 2.52642L4.39037 1.2293C4.32041 1.06259 4.31734 0.875344 4.38181 0.706439C4.44629 0.537533 4.57334 0.399953 4.7366 0.322272C4.89985 0.244591 5.08675 0.232779 5.25849 0.28929C5.43022 0.345801 5.57359 0.466291 5.65881 0.625736ZM10.7483 0.310736C11.0869 0.451361 11.2596 0.822611 11.1589 1.1663L11.1331 1.23942L10.5751 2.51967C10.5044 2.68603 10.373 2.81922 10.2076 2.89216C10.0423 2.96511 9.8553 2.97233 9.6848 2.91237C9.51429 2.8524 9.37301 2.72975 9.28971 2.56935C9.2064 2.40895 9.18731 2.22284 9.23631 2.04886L9.26219 1.97574L9.81962 0.695486C9.8918 0.521347 10.0302 0.382996 10.2043 0.310847C10.3785 0.238699 10.5741 0.238658 10.7483 0.310736Z" fill="white"/>
</svg>
