<svg width="34" height="31" viewBox="0 0 34 31" fill="none" xmlns="http://www.w3.org/2000/svg">
<path d="M17.3743 3.875C21.731 3.875 24.2026 6.58427 24.5621 9.85542H24.6721C27.4757 9.85542 29.7486 11.9854 29.7486 14.612C29.7486 17.2392 27.4757 19.3685 24.6721 19.3685L23.4876 19.3692L23.4848 19.375H23.0819L21.7269 21.5579C21.67 21.6495 21.5945 21.7297 21.5046 21.7939C21.4147 21.858 21.3123 21.905 21.2031 21.932C21.094 21.9589 20.9802 21.9655 20.8684 21.9512C20.7565 21.9368 20.6488 21.902 20.5513 21.8485C20.4537 21.7951 20.3684 21.7242 20.3001 21.6397C20.2318 21.5553 20.1818 21.4591 20.1531 21.3565C20.1244 21.254 20.1174 21.1471 20.1326 21.0421C20.1479 20.937 20.185 20.8358 20.2419 20.7442L21.0964 19.3685L18.1684 19.3692L18.1663 19.375H17.5819L16.2269 21.5579C16.17 21.6495 16.0945 21.7297 16.0046 21.7939C15.9147 21.858 15.8123 21.905 15.7031 21.932C15.594 21.9589 15.4802 21.9655 15.3684 21.9512C15.2565 21.9368 15.1488 21.902 15.0513 21.8485C14.9537 21.7951 14.8684 21.7242 14.8001 21.6397C14.7318 21.5553 14.6818 21.4591 14.6531 21.3565C14.6244 21.254 14.6174 21.1471 14.6326 21.0421C14.6479 20.937 14.685 20.8358 14.7419 20.7442L15.5964 19.3685L12.8499 19.3692L12.8478 19.375H12.0826L10.7269 21.5579C10.67 21.6495 10.5945 21.7297 10.5046 21.7939C10.4147 21.858 10.3123 21.905 10.2031 21.932C10.094 21.9589 9.98021 21.9655 9.86836 21.9512C9.75651 21.9368 9.64876 21.902 9.55125 21.8485C9.45374 21.7951 9.36839 21.7242 9.30008 21.6397C9.23176 21.5553 9.18181 21.4591 9.15308 21.3565C9.12435 21.254 9.11741 21.1471 9.13264 21.0421C9.14788 20.937 9.185 20.8358 9.24188 20.7442L10.0964 19.3685H10.0765C7.27287 19.3685 5 17.2392 5 14.612C5 11.9854 7.27287 9.85542 10.0765 9.85542H10.1865C10.5481 6.56231 13.0176 3.875 17.375 3.875H17.3743ZM17.3743 5.48635C14.4449 5.48635 11.8915 7.71319 11.8915 10.7886C11.8915 11.2762 11.4405 11.6592 10.9235 11.6592H9.94725C8.16388 11.6592 6.71806 13.0239 6.71806 14.7076C6.71806 16.3919 8.16388 17.7572 9.94725 17.7572H24.8014C26.5847 17.7572 28.0306 16.3919 28.0306 14.7082C28.0306 13.0239 26.5847 11.6586 24.8014 11.6586H23.8251C23.3081 11.6586 22.8571 11.2762 22.8571 10.7893C22.8571 7.67379 20.3038 5.487 17.3743 5.487V5.48635Z" fill="white"/>
<path d="M12.9956 22.391C13.0931 22.4445 13.1785 22.5154 13.2468 22.5998C13.3152 22.6842 13.3651 22.7805 13.3939 22.883C13.4226 22.9856 13.4295 23.0925 13.4143 23.1975C13.399 23.3026 13.3619 23.4038 13.305 23.4954L12.1019 25.4329C12.045 25.5245 11.9695 25.6047 11.8796 25.6689C11.7897 25.7331 11.6873 25.78 11.5781 25.807C11.469 25.8339 11.3552 25.8405 11.2434 25.8262C11.1315 25.8118 11.0237 25.777 10.9262 25.7236C10.8287 25.6701 10.7434 25.5992 10.6751 25.5148C10.6068 25.4303 10.5568 25.3341 10.5281 25.2316C10.4993 25.129 10.4924 25.0221 10.5076 24.9171C10.5229 24.812 10.56 24.7108 10.6169 24.6192L11.82 22.6817C11.8768 22.5901 11.9524 22.5099 12.0422 22.4457C12.1321 22.3815 12.2345 22.3345 12.3437 22.3076C12.4529 22.2806 12.5666 22.274 12.6785 22.2884C12.7904 22.3027 12.8981 22.3376 12.9956 22.391Z" fill="white"/>
<path d="M18.805 23.4954C18.8619 23.4038 18.899 23.3026 18.9142 23.1975C18.9295 23.0924 18.9225 22.9856 18.8938 22.883C18.8651 22.7805 18.8151 22.6843 18.7468 22.5998C18.6785 22.5154 18.5931 22.4445 18.4956 22.391C18.3981 22.3376 18.2904 22.3027 18.1785 22.2884C18.0667 22.2741 17.9529 22.2806 17.8437 22.3076C17.7346 22.3346 17.6321 22.3815 17.5423 22.4457C17.4524 22.5099 17.3769 22.5901 17.32 22.6817L16.1169 24.6192C16.06 24.7108 16.0229 24.812 16.0076 24.9171C15.9924 25.0221 15.9993 25.129 16.0281 25.2315C16.0568 25.3341 16.1068 25.4303 16.1751 25.5147C16.2434 25.5992 16.3287 25.6701 16.4262 25.7235C16.5237 25.777 16.6315 25.8118 16.7434 25.8261C16.8552 25.8405 16.969 25.8339 17.0781 25.8069C17.1873 25.78 17.2897 25.733 17.3796 25.6689C17.4695 25.6047 17.545 25.5245 17.6019 25.4329L18.805 23.4954Z" fill="white"/>
</svg>
