<svg width="32" height="31" viewBox="0 0 32 31" fill="none" xmlns="http://www.w3.org/2000/svg">
<path d="M17.1634 10.332C21.2561 10.332 23.5779 13.0407 23.915 16.3125H24.0183C26.6527 16.3125 28.7878 18.4424 28.7878 21.069C28.7878 23.6963 26.6527 25.8256 24.0183 25.8256H10.3079C7.67486 25.8256 5.53973 23.6963 5.53973 21.069C5.53973 18.4424 7.67486 16.3125 10.3086 16.3125H10.4119C10.7516 13.0194 13.0714 10.332 17.1641 10.332H17.1634ZM17.1634 11.9434C14.4115 11.9434 12.0129 14.1702 12.0129 17.2457C12.0129 17.7333 11.5886 18.1163 11.1036 18.1163H10.1865C8.51057 18.1163 7.15302 19.4809 7.15302 21.1646C7.15302 22.8489 8.51121 24.2142 10.1865 24.2142H24.1404C25.8157 24.2142 27.1739 22.8489 27.1739 21.1653C27.1739 19.4809 25.8157 18.1156 24.1404 18.1156H23.2233C22.7376 18.1156 22.314 17.7333 22.314 17.2463C22.314 14.1308 19.9153 11.944 17.1634 11.944V11.9434ZM5.99698 15.6886C6.07292 15.8723 6.07804 16.0777 6.01136 16.265C5.94467 16.4522 5.81092 16.6082 5.63596 16.7025L5.56169 16.7381L4.06917 17.3587C3.87858 17.4398 3.66401 17.4442 3.47031 17.3708C3.27661 17.2974 3.11877 17.152 3.02979 16.9649C2.94081 16.7779 2.92758 16.5637 2.99286 16.3671C3.05813 16.1705 3.19687 16.0068 3.38006 15.9101L3.45434 15.8746L4.94686 15.2539C5.14367 15.1725 5.36478 15.1725 5.56158 15.254C5.75838 15.3355 5.91476 15.4918 5.99634 15.6886H5.99698ZM14.3928 9.46146L14.3528 9.47438C13.7554 9.66942 13.2006 9.92776 12.693 10.2429C11.9994 9.94943 11.2304 9.884 10.4972 10.0561C9.76399 10.2282 9.10444 10.6288 8.61381 11.2003C8.12319 11.7717 7.82688 12.4842 7.76769 13.2351C7.7085 13.9859 7.88949 14.7361 8.28452 15.3773C7.79832 15.5509 7.3366 15.7867 6.91084 16.0787C6.31662 15.061 6.09384 13.8687 6.28049 12.7052C6.46714 11.5416 7.05166 10.4788 7.93435 9.69809C8.81705 8.91735 9.94326 8.467 11.1209 8.42385C12.2986 8.3807 13.4547 8.74742 14.3922 9.46146H14.3928ZM3.97617 9.57771L4.05819 9.60742L5.55588 10.2462C5.96275 10.4179 6.15779 10.8888 5.99181 11.2982C5.83681 11.6799 5.42154 11.873 5.03598 11.7568L4.95461 11.7277L3.45627 11.089C3.26055 11.0054 3.10537 10.8484 3.024 10.6517C2.94263 10.4551 2.94154 10.2344 3.02098 10.0369C3.17598 9.65521 3.59061 9.46211 3.97617 9.57836V9.57771ZM8.73467 5.59098L8.77019 5.66526L9.39019 7.15455C9.46797 7.34545 9.46978 7.55888 9.39524 7.75107C9.3207 7.94327 9.17547 8.09967 8.98931 8.1882C8.80314 8.27674 8.59017 8.29071 8.39404 8.22725C8.19791 8.16378 8.03348 8.02769 7.93448 7.84688L7.89896 7.77261L7.27896 6.28332C7.20118 6.09241 7.19937 5.87899 7.27391 5.68679C7.34845 5.4946 7.49368 5.3382 7.67984 5.24966C7.86601 5.16112 8.07898 5.14715 8.27511 5.21062C8.47124 5.27408 8.63567 5.41017 8.73467 5.59098ZM14.5788 5.22932C14.967 5.39013 15.1652 5.81703 15.0503 6.21098L15.0206 6.29494L14.3799 7.76486C14.2987 7.95586 14.1479 8.10878 13.958 8.19253C13.7682 8.27629 13.5535 8.28458 13.3577 8.21573C13.162 8.14688 12.9998 8.00606 12.9041 7.82189C12.8085 7.63773 12.7865 7.42405 12.8428 7.2243L12.8725 7.14034L13.5119 5.67042C13.553 5.5714 13.6132 5.48144 13.689 5.40569C13.7649 5.32993 13.8549 5.26986 13.954 5.22889C14.0531 5.18793 14.1592 5.16689 14.2664 5.16696C14.3737 5.16703 14.4798 5.18822 14.5788 5.22932Z" fill="white"/>
</svg>
