<svg width="31" height="25" viewBox="0 0 31 25" fill="none" xmlns="http://www.w3.org/2000/svg">
<path d="M14.9961 4.71092C16.5842 4.81567 18.1141 5.25593 19.4414 5.99015C20.7686 6.72437 21.8495 7.72833 22.5819 8.90727C23.3143 10.0862 23.6741 11.4012 23.6274 12.7282C23.5807 14.0552 23.1289 15.3504 22.3148 16.4915C21.5007 17.6326 20.3511 18.582 18.9744 19.2501C17.5978 19.9182 16.0396 20.283 14.4468 20.31C12.8541 20.3369 11.2793 20.0252 9.87129 19.4042C8.46323 18.7833 7.26829 17.8736 6.39924 16.7609C9.02986 16.1672 12.6167 14.7265 14.1992 11.2125C15.2342 8.90936 15.2942 6.62186 14.9961 4.71248V4.71092ZM25.5074 12.5C25.5073 11.2413 25.203 9.99544 24.6128 8.83682C24.0225 7.67819 23.1583 6.63049 22.0716 5.75618C20.985 4.88186 19.6983 4.19885 18.2881 3.74787C16.8779 3.29689 15.3731 3.08718 13.8636 3.13123C13.7285 3.13493 13.596 3.16293 13.4751 3.21332C13.3542 3.2637 13.2478 3.33528 13.1632 3.42314C13.0786 3.511 13.0178 3.61307 12.9849 3.72235C12.9521 3.83162 12.948 3.94552 12.973 4.05623C13.4042 5.95311 13.498 8.31873 12.4424 10.6625C10.9424 13.9969 7.18861 15.1 4.79799 15.4609C4.65567 15.4824 4.52124 15.531 4.40521 15.6029C4.28918 15.6748 4.19469 15.7682 4.12915 15.8756C4.0636 15.983 4.02877 16.1017 4.02737 16.2222C4.02598 16.3427 4.05806 16.4618 4.12111 16.5703C5.22692 18.4842 7.07989 20.0284 9.3765 20.95C11.6731 21.8715 14.2772 22.1159 16.7622 21.6429C19.2473 21.1699 21.4659 20.0077 23.0547 18.3467C24.6435 16.6856 25.5082 14.6242 25.5074 12.5Z" fill="white"/>
</svg>
